<?xml version="1.0" encoding="utf-8"?>
<!-- Generator: Adobe Illustrator 19.0.0, SVG Export Plug-In . SVG Version: 6.00 Build 0)  -->
<svg version="1.1" id="Layer_1" xmlns="http://www.w3.org/2000/svg" xmlns:xlink="http://www.w3.org/1999/xlink" x="0px" y="0px"
	 viewBox="0 0 500 500" style="enable-background:new 0 0 500 500;" xml:space="preserve">
<style type="text/css">
	.st0{fill:#FF0000;}
	.st1{fill:#FFFFFF;}
</style>
<g id="XMLID_2_">
	<path id="XMLID_6_" class="st0" d="M424.9,161.6c-4.2-15.8-16.6-28.3-32.3-32.5c-28.5-7.7-142.6-7.7-142.6-7.7s-114.1,0-142.6,7.7
		c-15.7,4.2-28.1,16.7-32.3,32.5c-7.6,28.6-7.6,88.4-7.6,88.4s0,59.8,7.6,88.4c4.2,15.8,16.6,28.3,32.3,32.5
		c28.5,7.7,142.6,7.7,142.6,7.7s114.1,0,142.6-7.7c15.7-4.2,28.1-16.7,32.3-32.5c7.6-28.6,7.6-88.4,7.6-88.4
		S432.5,190.2,424.9,161.6z"/>
	<polygon id="XMLID_7_" class="st1" points="212.7,304.3 308.1,250 212.7,195.7 	"/>
</g>
</svg>
